<mxfile host="app.diagrams.net" agent="Mozilla/5.0 (Windows NT 10.0; Win64; x64) AppleWebKit/537.36 (KHTML, like Gecko) Chrome/132.0.0.0 Safari/537.36" version="26.0.11">
  <diagram name="Page-1" id="740379U7ShsBbeKYCbFX">
    <mxGraphModel dx="1371" dy="522" grid="1" gridSize="10" guides="1" tooltips="1" connect="1" arrows="1" fold="1" page="1" pageScale="1" pageWidth="850" pageHeight="1100" math="0" shadow="0">
      <root>
        <mxCell id="0" />
        <mxCell id="1" parent="0" />
        <mxCell id="tfSLzY2xjKMm0Gt4QUIr-1" value="lamda&amp;nbsp;" style="rounded=0;whiteSpace=wrap;html=1;" vertex="1" parent="1">
          <mxGeometry x="180" y="120" width="140" height="180" as="geometry" />
        </mxCell>
        <mxCell id="tfSLzY2xjKMm0Gt4QUIr-4" style="edgeStyle=orthogonalEdgeStyle;rounded=0;orthogonalLoop=1;jettySize=auto;html=1;entryX=0.417;entryY=1;entryDx=0;entryDy=0;entryPerimeter=0;" edge="1" parent="1" source="tfSLzY2xjKMm0Gt4QUIr-2" target="tfSLzY2xjKMm0Gt4QUIr-3">
          <mxGeometry relative="1" as="geometry">
            <mxPoint x="460" y="250" as="targetPoint" />
          </mxGeometry>
        </mxCell>
        <mxCell id="tfSLzY2xjKMm0Gt4QUIr-2" value="python(boto 3)" style="rounded=1;whiteSpace=wrap;html=1;" vertex="1" parent="1">
          <mxGeometry x="180" y="230" width="140" height="60" as="geometry" />
        </mxCell>
        <mxCell id="tfSLzY2xjKMm0Gt4QUIr-3" value="aws api server" style="rounded=1;whiteSpace=wrap;html=1;" vertex="1" parent="1">
          <mxGeometry x="410" y="160" width="120" height="60" as="geometry" />
        </mxCell>
        <mxCell id="tfSLzY2xjKMm0Gt4QUIr-6" value="" style="edgeStyle=orthogonalEdgeStyle;rounded=0;orthogonalLoop=1;jettySize=auto;html=1;" edge="1" parent="1" source="tfSLzY2xjKMm0Gt4QUIr-5" target="tfSLzY2xjKMm0Gt4QUIr-1">
          <mxGeometry relative="1" as="geometry" />
        </mxCell>
        <mxCell id="tfSLzY2xjKMm0Gt4QUIr-5" value="cost optimization" style="rounded=0;whiteSpace=wrap;html=1;" vertex="1" parent="1">
          <mxGeometry x="180" y="20" width="140" height="60" as="geometry" />
        </mxCell>
        <mxCell id="tfSLzY2xjKMm0Gt4QUIr-9" value="communicate" style="text;html=1;align=center;verticalAlign=middle;resizable=0;points=[];autosize=1;strokeColor=none;fillColor=none;" vertex="1" parent="1">
          <mxGeometry x="340" y="230" width="90" height="30" as="geometry" />
        </mxCell>
        <mxCell id="tfSLzY2xjKMm0Gt4QUIr-10" value="so&amp;nbsp; here api servere will communicate and send the alerts way SNS&amp;nbsp;&lt;div&gt;if any EBS volumes stiil they active or stale snapshots so you can delete the same ununsed&amp;nbsp;&lt;/div&gt;&lt;div&gt;with lamda functions oryou can trigger with cloud watch&lt;/div&gt;&lt;div&gt;&lt;br&gt;&lt;/div&gt;" style="text;html=1;align=center;verticalAlign=middle;resizable=0;points=[];autosize=1;strokeColor=none;fillColor=none;" vertex="1" parent="1">
          <mxGeometry x="-25" y="328" width="510" height="70" as="geometry" />
        </mxCell>
        <mxCell id="tfSLzY2xjKMm0Gt4QUIr-13" value="lets take an example that&amp;nbsp; ebs voume are not been deleted or stale as developer was not removerd them&lt;div&gt;&lt;br&gt;&lt;/div&gt;&lt;div&gt;1, write a lamda to delete the ebs snapshots and&amp;nbsp;&lt;/div&gt;&lt;div&gt;2,filter out the snapshots.&lt;/div&gt;" style="text;html=1;align=center;verticalAlign=middle;resizable=0;points=[];autosize=1;strokeColor=none;fillColor=none;" vertex="1" parent="1">
          <mxGeometry x="-80" y="418" width="580" height="70" as="geometry" />
        </mxCell>
      </root>
    </mxGraphModel>
  </diagram>
</mxfile>
